<svg id="SvgjsSvg1702" width="550" height="550" xmlns="http://www.w3.org/2000/svg" version="1.1" xmlns:xlink="http://www.w3.org/1999/xlink" xmlns:svgjs="http://svgjs.com/svgjs"><defs id="SvgjsDefs1703"></defs><g id="SvgjsG1704"><svg xmlns="http://www.w3.org/2000/svg" viewBox="0 0 3000 3000" width="550" height="550"><path fill="#d89090" d="M547.54 1019.29v-.36c-.02.06-.04.12-.05.18-.02-.06-.04-.12-.05-.18v.36c-4.71 17.09-15.6 29.31-32.67 36.66 17.07 7.35 27.96 19.57 32.67 36.66v.36c.02-.06.04-.12.05-.18.02.06.04.12.05.18v-.36c4.71-17.09 15.6-29.31 32.67-36.66-17.07-7.35-27.96-19.57-32.67-36.66zM2482.4 733.39v-.36c-.02.06-.04.12-.05.18-.02-.06-.04-.12-.05-.18v.36c-4.71 17.09-15.6 29.31-32.67 36.66 17.07 7.35 27.96 19.57 32.67 36.66v.36c.02-.06.04-.12.05-.18.02.06.04.12.05.18v-.36c4.71-17.09 15.6-29.31 32.67-36.66-17.07-7.35-27.96-19.57-32.67-36.66zM2059.79 453.94v-.36c-.02.06-.04.12-.05.18-.02-.06-.04-.12-.05-.18v.36c-4.71 17.09-15.6 29.31-32.67 36.66 17.07 7.35 27.96 19.57 32.67 36.66v.36c.02-.06.04-.12.05-.18.02.06.04.12.05.18v-.36c4.71-17.09 15.6-29.31 32.67-36.66-17.07-7.35-27.96-19.57-32.67-36.66zM1062.86 296.84v-.36c-.02.06-.04.12-.05.18-.02-.06-.04-.12-.05-.18v.36c-4.71 17.09-15.6 29.31-32.67 36.66 17.07 7.35 27.96 19.57 32.67 36.66v.36c.02-.06.04-.12.05-.18.02.06.04.12.05.18v-.36c4.71-17.09 15.6-29.31 32.67-36.66-17.07-7.35-27.96-19.57-32.67-36.66zM2449.73 243.71v-.73c-.03.13-.07.24-.1.37-.03-.13-.07-.24-.1-.37v.73c-9.42 34.17-31.2 58.62-65.34 73.32 34.14 14.7 55.91 39.15 65.34 73.32v.73c.03-.13.07-.24.1-.37.03.13.07.24.1.37v-.73c9.42-34.17 31.2-58.62 65.34-73.32-34.14-14.7-55.91-39.15-65.34-73.32zM375.51 460.15v-.73c-.03.13-.07.24-.1.37-.03-.13-.07-.24-.1-.37v.73c-9.42 34.17-31.2 58.62-65.34 73.32 34.14 14.7 55.91 39.15 65.34 73.32v.73c.03-.13.07-.24.1-.37.03.13.07.24.1.37v-.73c9.42-34.17 31.2-58.62 65.34-73.32-34.14-14.7-55.91-39.15-65.34-73.32z" class="colorb5e6f7 svgShape"></path><circle cx="1282.68" cy="808.38" r="213.22" fill="#d89090" class="colorb5e6f7 svgShape"></circle><path fill="#d473f6" d="m959.89,998.11c-19.1,0-30.29-4.25-34.11-12.92-5.43-12.34,6.03-29.94,35.03-53.8,25.7-21.14,64.76-46.72,112.95-73.95,2.4-1.36,5.45-.51,6.81,1.89,1.36,2.4.51,5.45-1.89,6.81-122.87,69.44-148.17,104.97-143.75,115.02,3.98,9.05,37.05,12.12,117.14-8.99,72.4-19.08,165.05-52.8,260.88-94.95,95.83-42.15,183.3-87.64,246.29-128.1,30.45-19.56,53.45-36.83,68.35-51.33,19.08-18.56,18.56-26.42,17.45-28.94-4.37-9.94-47.06-15.36-179.32,27.36-2.63.85-5.45-.59-6.29-3.22-.85-2.63.59-5.45,3.22-6.29,51.96-16.79,96.59-28.04,129.05-32.53,36.67-5.08,57.11-1.59,62.5,10.66,4.36,9.91-2.06,23.04-19.63,40.13-15.38,14.96-38.9,32.65-69.92,52.57-63.42,40.74-151.38,86.49-247.67,128.84-96.29,42.35-189.47,76.25-262.35,95.46-35.65,9.4-64.58,14.78-86,16-3.08.18-5.99.26-8.74.26Z" class="color89d5ef svgShape"></path><path fill="#d89090" d="m1703.25,2567.87c45.09-98.2,70.25-207.45,70.25-322.58,0-427.38-346.46-773.84-773.84-773.84s-773.84,346.46-773.84,773.84c0,115.13,25.16,224.38,70.25,322.58h1407.17Z" class="colorb5e6f7 svgShape"></path><path fill="#d473f6" d="M1647.66 1822.15c-66.73 18.55-163.84 31.92-300.16 22.67-267.51-18.16-588.02-171.91-839.9-196.8-156.37 128.98-261.22 318.18-279.05 532.1 75.96-63.33 187.25-131.7 341.09-171.38 342.81-88.42 725.02 12.64 927.25 0 86.09-5.38 161.03-30.53 218.72-57.64-18.63-45.3-41.44-88.44-67.95-128.95zM1578.01 2317.48c-126.76-5.62-573.04-234.16-935.82-145.35-202.79 49.64-334.32 116.29-410.91 165.42 9.66 81.31 31.93 158.75 64.8 230.32h1407.17c43.85-95.49 68.85-201.43 70.19-313.07-59.74 33.5-133.75 65.42-195.43 62.68z" class="color89d5ef svgShape"></path><circle cx="547.49" cy="1515.23" r="172.09" fill="#f7dada" class="colordaf1f7 svgShape"></circle><path fill="#dca3f3" d="M2362.63 2005.14l245.42-97.72c35.86-14.28 66.56-39.1 88.03-71.18l171.97-256.98c12.33-18.42 4.99-43.52-15.33-52.39l-140.92-61.55c-13.68-5.98-29.64-2.77-39.96 8.02l-117.75 123.18-170.32 27.23-21.14 381.4zM1763.63 1743.5l-95.09-246.45c-13.9-36.02-16.55-75.4-7.6-112.95l71.66-300.8c5.14-21.57 28.53-33.23 48.85-24.36l140.92 61.55c13.68 5.98 22.18 19.86 21.27 34.76l-10.34 170.09 95.76 143.46-265.43 274.7z" class="color87b9f4 svgShape"></path><path fill="#ce5252" d="m2176.91,1072.89l396.85,173.34c21.91,9.57,30.18,36.38,17.46,56.63l-105.89,168.6-413.56-180.64,51.73-192.26c6.21-23.08,31.5-35.24,53.41-25.67Z" class="color001a3f svgShape"></path><path fill="#e1dede" d="m2002.9,2567.87c23.22-22.4,47.23-47.4,72.47-75.26,184.61-203.84,388.73-589.24,449.07-1004.07l-245.89-107.4-245.89-107.4c-263.31,326.18-407.34,737.83-431.42,1011.78-10.29,117.03-8.26,206.42,9.76,282.36h391.9Z" class="coloreaeaea svgShape"></path><circle cx="1941.35" cy="2153.14" r="193.54" fill="#dca3f3" class="color87b9f4 svgShape"></circle><circle cx="1941.35" cy="2153.14" r="123.07" fill="#ce5252" class="color001a3f svgShape"></circle><rect width="81.49" height="634.46" x="2149.36" y="1266.39" fill="#dca3f3" rx="40.74" ry="40.74" transform="rotate(-156.4 2190.194 1583.535)" class="color87b9f4 svgShape"></rect><path fill="#9e9e9e" d="m2002.9,2567.87c7.25-6.99,14.58-14.24,21.99-21.75-117.03-114.87-259.94-176.54-428.72-185-3.48,81.32.89,148.05,14.82,206.74h391.91Z" class="color2f5584 svgShape"></path><path fill="#d473f6" d="m2800.57,2572.87H143.94c-2.76,0-5-2.24-5-5s2.24-5,5-5h2656.62c2.76,0,5,2.24,5,5s-2.24,5-5,5Z" class="color89d5ef svgShape"></path></svg></g></svg>
