<svg id="SvgjsSvg1759" width="550" height="550" xmlns="http://www.w3.org/2000/svg" version="1.1" xmlns:xlink="http://www.w3.org/1999/xlink" xmlns:svgjs="http://svgjs.com/svgjs"><defs id="SvgjsDefs1760"></defs><g id="SvgjsG1761"><svg xmlns="http://www.w3.org/2000/svg" viewBox="0 0 3000 3000" width="550" height="550"><rect width="63.63" height="631.82" x="2519.19" y="464.51" fill="#d89090" transform="rotate(-36.42 2551.11 780.421)" class="color001a3f svgShape"></rect><circle cx="2246.7" cy="368" r="251.34" fill="#ce5252" class="colorff4e74 svgShape"></circle><path fill="#e1dede" d="M2430.53 368.9c.22-38.25-11.45-76.9-35.91-110.05-60.28-81.69-175.36-99.05-257.05-38.78-33.15 24.46-55.7 57.94-66.78 94.55l359.74 54.27zM2062.87 367.09c-.22 38.25 11.45 76.9 35.91 110.05 60.28 81.69 175.36 99.05 257.05 38.78 33.15-24.46 55.7-57.94 66.78-94.55l-359.74-54.27z" class="coloreaeaea svgShape"></path><path fill="#d473f6" d="M2368.76 1658.37v-.36c-.02.06-.04.12-.05.18-.02-.06-.04-.12-.05-.18v.36c-4.71 17.09-15.6 29.31-32.67 36.66 17.07 7.35 27.96 19.57 32.67 36.66v.36c.02-.06.04-.12.05-.18.02.06.04.12.05.18v-.36c4.71-17.09 15.6-29.31 32.67-36.66-17.07-7.35-27.96-19.57-32.67-36.66zM468.21 768.31v-.36c-.02.06-.04.12-.05.18-.02-.06-.04-.12-.05-.18v.36c-4.71 17.09-15.6 29.31-32.67 36.66 17.07 7.35 27.96 19.57 32.67 36.66v.36c.02-.06.04-.12.05-.18.02.06.04.12.05.18v-.36c4.71-17.09 15.6-29.31 32.67-36.66-17.07-7.35-27.96-19.57-32.67-36.66zM2543.85 2259.7v-.36c-.02.06-.04.12-.05.18-.02-.06-.04-.12-.05-.18v.36c-4.71 17.09-15.6 29.31-32.67 36.66 17.07 7.35 27.96 19.57 32.67 36.66v.36c.02-.06.04-.12.05-.18.02.06.04.12.05.18v-.36c4.71-17.09 15.6-29.31 32.67-36.66-17.07-7.35-27.96-19.57-32.67-36.66zM2156.1 2032.77v-.73c-.03.13-.07.24-.1.37-.03-.13-.07-.24-.1-.37v.73c-9.42 34.17-31.2 58.62-65.34 73.32 34.14 14.7 55.91 39.15 65.34 73.32v.73c.03-.13.07-.24.1-.37.03.13.07.24.1.37v-.73c9.42-34.17 31.2-58.62 65.34-73.32-34.14-14.7-55.91-39.15-65.34-73.32zM699.09 1212.13v-.73c-.03.13-.07.24-.1.37-.03-.13-.07-.24-.1-.37v.73c-9.42 34.17-31.2 58.62-65.34 73.32 34.14 14.7 55.91 39.15 65.34 73.32v.73c.03-.13.07-.24.1-.37.03.13.07.24.1.37v-.73c9.42-34.17 31.2-58.62 65.34-73.32-34.14-14.7-55.91-39.15-65.34-73.32zM1008.82 386.14v-.73c-.03.13-.07.24-.1.37-.03-.13-.07-.24-.1-.37v.73c-9.42 34.17-31.2 58.62-65.34 73.32 34.14 14.7 55.91 39.15 65.34 73.32v.73c.03-.13.07-.24.1-.37.03.13.07.24.1.37v-.73c9.42-34.17 31.2-58.62 65.34-73.32-34.14-14.7-55.91-39.15-65.34-73.32z" class="colorb5e6f7 svgShape"></path><ellipse cx="1810.4" cy="864.07" fill="#e1dede" rx="270.2" ry="256.22" class="coloreaeaea svgShape"></ellipse><path fill="#d89090" d="m2080.6,864.07c0,140.06-118.51,253.85-265.63,256.17-87.48-43.84-141.1-133.28-157.57-250.74-11.73-83.61,4.13-175.44,26.87-232.07,37.65-18.88,80.57-29.59,126.13-29.59,149.23,0,270.2,114.72,270.2,256.22Z" class="color001a3f svgShape"></path><path fill="#9e9e9e" d="m1717.29,880.72c-4.85-20.84-19.09-37.03-37.21-45.17l-2.24-9.63s-35.8,4.67-39.64,5.57c-35.44,8.24-57.48,43.65-49.24,79.09,8.24,35.44,43.32,55.89,79.09,49.24,9.84-1.83,39.64-5.57,39.64-5.57l-3.85-16.57c12.66-15.3,18.29-36.12,13.45-56.96Z" class="colorafacac svgShape"></path><circle cx="1692.77" cy="890.08" r="65.88" fill="#cccccc" class="colorccc svgShape"></circle><path fill="#e1dede" d="m780.91,1888.4s112.86,13.76,198.2-35.79c85.33-49.55,156.9-176.17,209.21-220.22,52.3-44.04,123.87-96.34,148.65-134.88,24.77-38.54,33.03-93.59,33.03-93.59,0,0,148.65-74.32,267.01-68.82,118.37,5.51,247.74,93.59,247.74,93.59,0,0-46.8,187.18-60.56,275.27s-32.9,223.86-129.24,416.55c-96.34,192.69-458.01,366.61-458.01,366.61l-72.67-173.29s171.5-106.32,211.2-196.66c48.51-110.4,38.47-232.5,38.47-232.5,0,0-68.72,127.6-181.58,177.15s-451.44,73.68-451.44,73.68v-247.1Z" class="coloreaeaea svgShape"></path><path fill="#e1dede" d="m780.91,1888.4s112.86,13.76,198.2-35.79c85.33-49.55,156.9-176.17,209.21-220.22,52.3-44.04,123.87-96.34,148.65-134.88,24.77-38.54,33.03-93.59,33.03-93.59,0,0,148.65-74.32,267.01-68.82,118.37,5.51,247.74,93.59,247.74,93.59,0,0-46.8,187.18-60.56,275.27s-32.9,223.86-129.24,416.55c-96.34,192.69-458.01,366.61-458.01,366.61l-72.67-173.29s171.5-106.32,211.2-196.66c48.51-110.4,38.47-232.5,38.47-232.5,0,0-68.72,127.6-181.58,177.15s-451.44,73.68-451.44,73.68v-247.1Z" class="coloreaeaea svgShape"></path><path fill="#cccccc" d="m1884.74,1428.69s-129.38-88.09-247.74-93.59-267.01,68.82-267.01,68.82c0,0-8.26,55.05-33.03,93.59-10.21,15.88-28.37,34.11-49.86,53.12,38.54,11.89,109.81,28.57,178.8,16.8,101.44-17.32,172.37-99.88,208.66-101.9s135.85,74.98,135.85,74.98c0,0-126.77,466.83-210.88,565.58s-166.31,150.6-266.69,157.17c-29.97,1.96-65.1,2.75-99.65,2.89-38.33,28.71-68.91,47.67-68.91,47.67l25.24,60.19,93.23,89.52c100.43-53.82,337.05-192.71,412.2-343.02,96.34-192.69,115.48-328.47,129.24-416.55s60.56-275.27,60.56-275.27Z" class="colorccc svgShape"></path><path fill="#cccccc" d="m1197.86,1977.14c-70.33,42.62-262.01,54.72-416.96,57.11v101.25s338.58-24.13,451.44-73.68c112.86-49.55,181.58-177.15,181.58-177.15,29.69-54.53,101.36-238.34,101.36-238.34,0,0-7.9,11.84-59.54,85.73s-132.38,169.02-257.89,245.08Z" class="colorccc svgShape"></path><path fill="#e1dede" d="m1347.8,1432.19s109.19-56.61,237.08-63.22c165.23-8.54,295.56,101.15,311.36,96.41,15.81-4.74,33.19-105.9,33.19-105.9,0,0,241.82-42.67,295.56-83.77,53.74-41.09,251.3-330.33,251.3-330.33l-90.09-101.15s-121.7,118.54-184.92,156.47c-63.22,37.93-237.08,71.12-275.01,63.22-37.93-7.9-181.76-25.29-284.5-20.55-102.73,4.74-156.47,26.87-172.28,39.51-15.81,12.64-51.84,88.79-78.7,167.81-26.87,79.03-43,181.48-43,181.48Z" class="coloreaeaea svgShape"></path><path fill="#cccccc" d="m2435.11,936.35s-175.91,247.92-257.36,293.96c-81.46,46.04-247.92,57.85-247.92,57.85,0,0-10.62-30.69-11.81-68.47-1.18-37.78,0-64.8,0-64.8,0,0-17.71,112.02-43.68,187.58-15.58,45.33-35.48,72.8-48.9,87.54,38.99,20.29,64.39,37.31,70.82,35.38,15.81-4.74,33.19-105.9,33.19-105.9,0,0,241.82-42.67,295.56-83.77,46.73-35.73,202.21-259.1,241.97-316.76l-31.87-22.62Z" class="colorccc svgShape"></path><path fill="#dca3f3" d="m1315.69,1521.71c27.65,26.54,181.36,23.62,223.45-.17,42.09-23.79,135.41-381.53,135.41-399.36s-193.97-17.85-248.87-12.36-91.5,73.2-129.92,192.14c-38.43,118.94,3.96,204.43,19.93,219.76Z" class="color87b9f4 svgShape"></path><path fill="#ef8989" d="m1674.55,1122.18c-36.67-17.4-64.53-1.77-96.43,32.71-31.89,34.47-94.3,232.17-95.69,289.02s27.79,80.03,56.7,77.64c44.03-3.65,75.42-136.67,103.15-214.32,27.73-77.65,48.98-177.11,32.26-185.04Z" class="color89d5ef svgShape"></path><path fill="#595959" d="M2335.98 872.88s36.33 31.55 58.31 57.36 60.22 69.78 60.22 69.78c0 0 43.02-38.24 52.58-43.02 9.56-4.78 43.97-18.16 80.3-44.93 36.33-26.77 71.7-91.77 71.7-108.98s-21.03-44.93-38.24-78.39c-17.21-33.46-65.28-82.46-73.88-88.2-8.6-5.74-75.94 84.73-75.94 84.73l-37.18-46.01s-36.69 45.66-47.2 73.38c-10.52 27.72-14.62 69.22-15.57 75.09-.96 5.87-35.09 49.18-35.09 49.18zM1254.35 2216.03s-80.06 65.31-94.81 72.68c-14.75 7.37-40.09 14.99-72.46 28.77-26.21 11.16-37.3 25.25-37.3 25.25 0 0-6.31 208.88-8.03 270.86s-33.04 253.97-33.04 257.42 62.61 8.27 89.5-3.34c51.29-22.15 92.67-98.11 103.79-131.67 14.49-43.75 46.88-145.36 52.35-177.5s51.38-65.42 72.61-78.04c21.23-12.62 48.78-23.53 54.52-26.97 5.74-3.44 11.48-70.01-7.46-120.51-18.94-50.5-75.21-124.29-119.67-116.95zM899.86 1856.16s24.52 42.13 34.88 103.54c10.36 61.41-11.1 180.53-21.46 187.19-10.36 6.66-156.86 17.76-165 21.46-8.14 3.7-42.91 51.05-80.65 113.94-37.73 62.89-84.35 91.01-112.46 95.45-28.12 4.44-94.71-12.58-94.71-12.58l125.99-517.67s39.38-13.58 81.18-9.87c31.34 2.78 102.1 17.76 133.92 22.2 31.82 4.44 98.3-3.65 98.3-3.65z" class="color2f5584 svgShape"></path><path fill="#d89090" d="M460.47 2365.16c29.44 6.35 80.54-62.01 115.64-161.73 32.81-93.24 57.76-257.57 50.35-297.78-7.41-40.21-13.33-52.81-40-58.15-26.67-5.34-48.89 13.71-67.94 53.92-19.05 40.21-74.43 183.78-86.61 284.02-8.89 73.15-8.56 171.72 28.56 179.73zM1008.71 2871.01c41.52 5.06 78.29-56.27 98.56-136.57 20.27-80.3 21.83-221.4 9.36-293.13-12.47-71.72-47.93-97.38-66.84-98.58-18.91-1.21-57.89 35.75-71.15 112.62-9.46 54.84-27.29 208.93-22.61 288.45 4.68 79.52 20.38 123.28 52.68 127.21zM2534.49 734.92c-.95 0-1.91-.27-2.75-.83-2.3-1.52-2.93-4.63-1.41-6.93l42.35-63.99c1.52-2.3 4.63-2.93 6.93-1.41 2.3 1.52 2.93 4.63 1.41 6.93l-42.35 63.99c-.96 1.45-2.55 2.24-4.17 2.24zM2565.39 772.44c-.95 0-1.91-.27-2.75-.83-2.3-1.52-2.93-4.63-1.41-6.93l42.35-63.99c1.52-2.3 4.63-2.93 6.93-1.41 2.3 1.52 2.93 4.63 1.41 6.93l-42.35 63.99c-.96 1.45-2.55 2.24-4.17 2.24zM2603.57 809.97c-.95 0-1.92-.27-2.77-.84-2.3-1.53-2.92-4.64-1.38-6.93l35.08-52.58c1.53-2.3 4.64-2.92 6.93-1.38 2.3 1.53 2.92 4.64 1.38 6.93l-35.08 52.58c-.96 1.45-2.55 2.23-4.16 2.23z" class="color001a3f svgShape"></path><path fill="#595959" d="m2151.65,1213.78c-45.53,38.52-50.7,104.59-50.7,104.59,0,0,2.08.9,5.85,2.2,50.78-13.59,97.9-29.33,118.19-44.85,16.97-12.97,48.27-50.68,83.16-96.21,0,0-74.13-35.44-156.51,34.27Z" class="color2f5584 svgShape"></path></svg></g></svg>
