<svg id="SvgjsSvg1686" width="550" height="550" xmlns="http://www.w3.org/2000/svg" version="1.1" xmlns:xlink="http://www.w3.org/1999/xlink" xmlns:svgjs="http://svgjs.com/svgjs"><defs id="SvgjsDefs1687"></defs><g id="SvgjsG1688"><svg xmlns="http://www.w3.org/2000/svg" viewBox="0 0 3000 3000" width="550" height="550"><polygon fill="#d89090" points="2678.54 2694.73 1685.6 960.72 1023.84 1149.03 1072.35 2714.63 2678.54 2694.73" class="colorb5e6f7 svgShape"></polygon><path fill="#ce5252" d="m2036.5,1336.13c-13.64-42.67-59.28-66.2-101.94-52.57-2.22.71-4.37,1.52-6.49,2.4l-102.34-108.67c88.33-78.7,131.8-162.4,109.44-232.36-44.65-139.71-334.88-171.79-648.24-71.64s-531.19,294.59-486.54,434.3c22.36,69.97,106.31,112.94,223.92,125.83l-20.35,147.88c-2.23.51-4.46,1.1-6.68,1.8-42.67,13.64-66.2,59.28-52.57,101.94,13.64,42.67,59.28,66.2,101.94,52.57,42.67-13.64,66.2-59.28,52.56-101.94-6.51-20.38-20.33-36.37-37.63-46.06l20.97-152.35c106.96,2.76,234.48-15.97,366.07-58.03s246.34-100.74,331.88-165.02l105.44,111.96c-8.48,17.92-10.46,38.97-3.95,59.35,13.64,42.67,59.28,66.2,101.94,52.57s66.2-59.28,52.57-101.94Z" class="color001a3f svgShape"></path><path fill="#9e9e9e" d="m2413.89,606.82L214.3,1309.78l-42.67,13.64,15.38,48.14c31.27,97.86,568.13,13.71,1199.09-187.93,630.96-201.65,1117.11-444.44,1085.84-542.3l-15.38-48.14-42.67,13.64Z" class="color2f5584 svgShape"></path><ellipse cx="1314.1" cy="958.3" fill="#dca3f3" rx="1199.39" ry="186.01" transform="rotate(-17.72 1314.362 958.451)" class="color87b9f4 svgShape"></ellipse><path fill="#ce5252" d="m510.25,1249.99c-6.79,0-13.29-.11-19.53-.35-57.39-2.12-88.66-13.72-95.61-35.46-6.95-21.74,11.8-49.32,57.32-84.33,41.83-32.17,104.51-69.06,186.31-109.67,167.84-83.31,397.66-173.1,647.1-252.82,249.44-79.72,488.73-139.85,673.79-169.32,90.18-14.36,162.65-20.66,215.38-18.71,57.39,2.12,88.66,13.72,95.61,35.46,6.95,21.74-11.8,49.32-57.32,84.33-41.83,32.17-104.51,69.06-186.31,109.67-167.84,83.31-397.66,173.1-647.1,252.82-249.44,79.72-488.73,139.85-673.79,169.32-79.52,12.66-145.26,19.05-195.85,19.05Zm1645.19-660.99c-50.03,0-115.23,6.35-194.23,18.93-184.57,29.39-423.34,89.4-672.31,168.97-248.98,79.57-478.29,169.15-645.7,252.25-81.22,40.31-143.34,76.86-184.66,108.64-28.32,21.78-60.66,52.19-53.9,73.36,6.77,21.17,50.75,27.19,86.45,28.51,52.08,1.92,123.9-4.33,213.44-18.59,184.57-29.39,423.34-89.4,672.31-168.97,248.98-79.57,478.29-169.15,645.7-252.25,81.22-40.31,143.34-76.86,184.66-108.64,28.32-21.78,60.66-52.19,53.9-73.36-6.77-21.17-50.75-27.19-86.45-28.51-6.13-.23-12.53-.34-19.21-.34Z" class="color001a3f svgShape"></path><path fill="#e1dede" d="m1942.7,748.8c-387.48,238.51-808.22,372.97-1262.2,403.38-22.84,1.53-41.89-17.26-40.77-40.12l9.25-188.13c13.62-277.1,197.75-516.66,462.02-601.12h0c264.27-84.46,553.2,3.92,725,221.76l116.64,147.9c14.18,17.98,9.55,44.33-9.94,56.33Z" class="coloreaeaea svgShape"></path><path fill="#d473f6" d="m956.75,974.6s-31.04-175.29-13.88-330.84c11.42-103.5,30.11-194.33,50.49-270.47-200,109.73-332.89,316.82-344.38,550.63l-9.25,188.13c-1.12,22.87,17.93,41.65,40.77,40.12,453.99-30.41,874.72-164.87,1262.2-403.38,19.5-12,24.12-38.35,9.94-56.33l-14.99-19.01c-109.81,61.29-266.9,143.78-403.11,195.65-234.25,89.2-577.79,105.5-577.79,105.5Z" class="colorccc svgShape"></path><path fill="#9e9e9e" d="m1868.63,585.94c-376.23,227.77-783.65,357.97-1222.24,390.61l-6.66,135.51c-1.12,22.87,17.93,41.65,40.77,40.12,453.99-30.41,874.72-164.87,1262.2-403.38,19.5-12,24.12-38.36,9.94-56.33l-84.01-106.53Z" class="color2f5584 svgShape"></path><path fill="#d89090" d="M2108.97 291.55v-.36c-.02.06-.04.12-.05.18-.02-.06-.04-.12-.05-.18v.36c-4.71 17.09-15.6 29.31-32.67 36.66 17.07 7.35 27.96 19.57 32.67 36.66v.36c.02-.06.04-.12.05-.18.02.06.04.12.05.18v-.36c4.71-17.09 15.6-29.31 32.67-36.66-17.07-7.35-27.96-19.57-32.67-36.66zM2678.59 665.1v-.36c-.02.06-.04.12-.05.18-.02-.06-.04-.12-.05-.18v.36c-4.71 17.09-15.6 29.31-32.67 36.66 17.07 7.35 27.96 19.57 32.67 36.66v.36c.02-.06.04-.12.05-.18.02.06.04.12.05.18v-.36c4.71-17.09 15.6-29.31 32.67-36.66-17.07-7.35-27.96-19.57-32.67-36.66zM535.25 1657.37v-.36c-.02.06-.04.12-.05.18-.02-.06-.04-.12-.05-.18v.36c-4.71 17.09-15.6 29.31-32.67 36.66 17.07 7.35 27.96 19.57 32.67 36.66v.36c.02-.06.04-.12.05-.18.02.06.04.12.05.18v-.36c4.71-17.09 15.6-29.31 32.67-36.66-17.07-7.35-27.96-19.57-32.67-36.66zM721.37 162.39v-.36c-.02.06-.04.12-.05.18-.02-.06-.04-.12-.05-.18v.36c-4.71 17.09-15.6 29.31-32.67 36.66 17.07 7.35 27.96 19.57 32.67 36.66v.36c.02-.06.04-.12.05-.18.02.06.04.12.05.18v-.36c4.71-17.09 15.6-29.31 32.67-36.66-17.07-7.35-27.96-19.57-32.67-36.66zM309.41 877.83v-.36c-.02.06-.04.12-.05.18-.02-.06-.04-.12-.05-.18v.36c-4.71 17.09-15.6 29.31-32.67 36.66 17.07 7.35 27.96 19.57 32.67 36.66v.36c.02-.06.04-.12.05-.18.02.06.04.12.05.18v-.36c4.71-17.09 15.6-29.31 32.67-36.66-17.07-7.35-27.96-19.57-32.67-36.66zM421.16 362.54v-.73c-.03.13-.07.24-.1.37-.03-.13-.07-.24-.1-.37v.73c-9.42 34.17-31.2 58.62-65.34 73.32 34.14 14.7 55.91 39.15 65.34 73.32v.73c.03-.13.07-.24.1-.37.03.13.07.24.1.37v-.73c9.42-34.17 31.2-58.62 65.34-73.32-34.14-14.7-55.91-39.15-65.34-73.32zM2538.92 125.73v-.73c-.03.13-.07.24-.1.37-.03-.13-.07-.24-.1-.37v.73c-9.42 34.17-31.2 58.62-65.34 73.32 34.14 14.7 55.91 39.15 65.34 73.32v.73c.03-.13.07-.24.1-.37.03.13.07.24.1.37v-.73c9.42-34.17 31.2-58.62 65.34-73.32-34.14-14.7-55.91-39.15-65.34-73.32zM2418.96 1164.67v-.73c-.03.13-.07.24-.1.37-.03-.13-.07-.24-.1-.37v.73c-9.42 34.17-31.2 58.62-65.34 73.32 34.14 14.7 55.91 39.15 65.34 73.32v.73c.03-.13.07-.24.1-.37.03.13.07.24.1.37v-.73c9.42-34.17 31.2-58.62 65.34-73.32-34.14-14.7-55.91-39.15-65.34-73.32z" class="colorb5e6f7 svgShape"></path><ellipse cx="1875.45" cy="2714.63" fill="#dca3f3" rx="803.09" ry="156.08" class="color87b9f4 svgShape"></ellipse><path fill="#d89090" d="M312.66 2551.66l-36.02-112.72 140.12-451.69 156.01-49.86 115.38 361.03 66.98-21.41 38.63 120.89-66.98 21.41 33.94 106.19-139.68 44.64-33.94-106.19-274.45 87.71zm179.31-419.21l-70.92 251.33 137.23-43.86-66.31-207.47zM2353.41 1780.62l12.02-117.73 308.95-358.07 162.94 16.64-38.5 377.06 69.95 7.14-12.89 126.26-69.95-7.14-11.32 110.9-145.88-14.89 11.32-110.9-286.64-29.27zm331.89-312.63l-165.44 202.05 143.32 14.63 22.12-216.68z" class="colorb5e6f7 svgShape"></path><path fill="#ffffff" d="m1544.39,1677.32c58.42-35.14,125.95-34.76,202.58,1.12,76.62,35.88,120.14,87.5,130.58,154.88,10.43,67.37-5.21,145.6-46.9,234.64-42.18,90.08-92.49,152.69-150.92,187.83-58.44,35.13-125.96,34.76-202.58-1.12-76.63-35.88-120.16-87.51-130.58-154.88-10.44-67.38,5.45-146.11,47.63-236.19,41.69-89.04,91.75-151.15,150.19-186.28Zm195.25,200.79c1.82-33.55-15.13-58.69-50.85-75.42-35.72-16.73-65.9-13.65-90.49,9.23-24.61,22.89-49.15,60.47-73.63,112.76-16.49,35.21-28.06,65.3-34.7,90.28-6.65,24.98-6.97,47.56-.94,67.73,6.01,20.18,21.45,36.08,46.3,47.72,24.85,11.64,46.94,13.31,66.3,5.01,19.34-8.3,36.48-23,51.42-44.1,14.92-21.09,30.63-49.24,47.12-84.46,24.48-52.29,37.63-95.21,39.46-128.76Z" class="colorfff svgShape"></path></svg></g></svg>
