<svg xmlns="http://www.w3.org/2000/svg" fill-rule="evenodd" stroke-linejoin="round" stroke-miterlimit="2" clip-rule="evenodd" viewBox="0 0 3000 3000" width="550" height="550"><path fill="none" d="M0 0h3000v3000H0z"></path><path d="M546.903 1749.97s-33.006-24.708-55.181-60.583c-21.063-34.075-32.215-78.789 8.957-121.231 35.433-36.527 106.869-70.923 236.767-97.281 198.844-40.347 532.482-60.784 1079.92-37.139 471.392 20.36 701.261-26.893 798.524-96.235 41.494-29.583 59.981-63.35 63.59-97.88 5.287-50.589-22.251-103.625-59.474-148.824-52.335-63.548-123.245-111.355-141.704-116.483-5.281-1.467-10.751 1.625-12.217 6.906-1.467 5.281 1.624 10.751 6.905 12.217 17.266 4.797 82.744 50.537 131.695 109.977 33.678 40.894 59.838 88.374 55.055 134.144-3.104 29.709-19.671 58.33-55.372 83.782-95.723 68.245-322.212 112.606-786.145 92.567-549.875-23.75-884.992-3.009-1084.72 37.518-135.819 27.559-210.017 64.72-247.066 102.912-49.431 50.956-36.882 104.575-11.593 145.486 24.176 39.111 60.172 66.038 60.172 66.038 4.388 3.284 10.607 2.388 13.891-2 3.284-4.388 2.388-10.607-2-13.891ZM2495.88 971.706s9.372.739 20.167-1.449c10.285-2.085 21.661-6.89 28.258-16.77 4.456-6.672 6.886-15.697 5.081-27.982a5.397 5.397 0 0 0-10.677 1.569c1.314 8.941-.135 15.565-3.378 20.421-4.949 7.412-13.712 10.622-21.428 12.186-9.205 1.866-17.193 1.266-17.193 1.266a5.395 5.395 0 1 0-.83 10.759Z" fill="#dca3f3" class="color000 svgShape"></path><path d="M2484.7 983.144c13.212-14.727 11.983-37.41-2.744-50.623l-109.771-98.483c-14.727-13.213-37.41-11.983-50.623 2.744l-47.879 53.367c-13.213 14.727-11.983 37.41 2.744 50.623l109.771 98.483c14.727 13.212 37.41 11.983 50.623-2.744l47.879-53.367Z" fill="#dca3f3" class="color000 svgShape"></path><path fill="#9e9e9e" d="M2484.7 983.144c13.212-14.727 11.983-37.41-2.744-50.623l-109.771-98.483c-14.727-13.213-37.41-11.983-50.623 2.744L2484.7 983.144Z" class="colorb7b4b4 svgShape"></path><path d="m2429.07 919.236 24.856-.444c.768-.013 1.387-1.615 1.381-3.576-.005-1.962-.632-3.541-1.4-3.527l-24.857.444c-.768.013-1.386 1.615-1.381 3.576.006 1.962.633 3.541 1.401 3.527Zm-32.276-27.722 24.857-.444c.768-.014 1.386-1.615 1.381-3.577-.006-1.961-.632-3.54-1.4-3.526l-24.857.443c-.768.014-1.386 1.616-1.381 3.577.005 1.962.632 3.541 1.4 3.527Zm-28.772-26.905 24.857-.444c.768-.014 1.386-1.615 1.381-3.577-.006-1.961-.632-3.54-1.4-3.527l-24.857.444c-.768.014-1.386 1.615-1.381 3.577.005 1.961.632 3.54 1.4 3.527Z" fill="#dca3f3" class="color000 svgShape"></path><path fill="#9e9e9e" d="M2553.53 916.953c8.737-6.61 10.995-18.791 5.207-28.093-40.195-64.093-87.18-126.176-141.032-186.227-7.36-8.172-19.75-9.352-28.521-2.717-15.645 11.829-37.548 28.401-37.548 28.401l164.262 217.108 37.632-28.472Z" class="colorb7b4b4 svgShape"></path><path d="m2480.74 888.264 63.489-.444a3.552 3.552 0 1 0-.05-7.103l-63.489.444a3.55 3.55 0 1 0 .05 7.103Zm-22.199-28.859 63.489-.444a3.55 3.55 0 1 0-.05-7.103l-63.489.444a3.55 3.55 0 1 0 .05 7.103Zm-24.863-36.85 63.489-.444a3.552 3.552 0 1 0-.05-7.104l-63.489.444a3.552 3.552 0 1 0 .05 7.104Zm-22.199-30.191 63.489-.444a3.551 3.551 0 1 0-.05-7.103l-63.489.444a3.55 3.55 0 1 0 .05 7.103Zm-20.424-34.63 63.49-.444a3.553 3.553 0 0 0-.05-7.104l-63.489.444a3.552 3.552 0 0 0 .049 7.104Z" fill="#dca3f3" class="color000 svgShape"></path><path fill="#d473f6" d="m697.203 1845.9-197.365-10.253 62.96-171.23L697.203 1845.9Z" class="color0153c0 svgShape"></path><path fill="#f00606" d="M2135.33 1328.24c-310.003 58.116-899.793-69.092-1137.77-276.887 68.602 372.149 105.409 734.819 132.273 1076.79 215.079 202.721 446.93 220.051 668.704 65.875 75.441-298.735 188.461-587.12 336.793-865.779Z" class="colorf02b06 svgShape"></path><path fill="#e1dede" d="m1813.5 1383.39-237.056 841.12c-2.503 8.884 2.677 18.113 11.571 20.614 8.894 2.5 18.134-2.674 20.638-11.558l237.056-841.12c2.504-8.884-2.677-18.113-11.571-20.613-8.894-2.501-18.134 2.673-20.638 11.557Zm-312.508-67.1L1388.912 2227c-1.127 9.16 5.393 17.498 14.564 18.624 9.171 1.126 17.519-5.387 18.646-14.547l112.081-910.71c1.127-9.16-5.394-17.498-14.564-18.624-9.171-1.126-17.519 5.387-18.647 14.547Zm-281.839-94.999-12.116 925.837c-.121 9.228 7.271 16.807 16.51 16.928 9.239.12 16.826-7.263 16.947-16.491l12.117-925.838c.121-9.228-7.271-16.806-16.51-16.927-9.239-.121-16.827 7.262-16.948 16.491ZM1684.8 854.363c344.432 78.895 601 229.108 572.588 335.231-28.412 106.124-331.114 128.229-675.547 49.334-344.432-78.896-601.001-229.108-572.589-335.232 28.413-106.124 331.115-128.229 675.548-49.333Z" class="colorfff svgShape"></path><path d="M1684.23 856.887c240.516 55.093 438.132 144.934 525.304 230.259 36.602 35.826 53.692 70.663 45.361 101.778a2.59 2.59 0 0 0 5.004 1.34c8.717-32.559-8.442-69.332-46.742-106.82-87.598-85.741-286.08-176.244-527.77-231.606a2.59 2.59 0 0 0-1.157 5.049Z" fill="#dca3f3" class="color000 svgShape"></path><path d="M1011.76 904.366c8.346-31.173 41.087-54.651 91.627-70.567 120.159-37.841 340.297-32.011 580.84 23.088a2.59 2.59 0 1 0 1.157-5.049c-241.663-55.355-462.835-60.997-583.553-22.98-52.695 16.594-86.373 41.666-95.074 74.168a2.59 2.59 0 1 0 5.003 1.34Z" fill="#dca3f3" class="color000 svgShape"></path><path fill="#d89090" d="m1274.93 1123.67 1.879-8.81c.192-.903-.054-1.872-.69-2.716l-8.964-11.901 9.7-16.933 24.452 6.223c1.486.378 3.025.174 4.131-.548 1.107-.721 1.644-1.872 1.444-3.09l-5.179-31.472 21.994-6.098 17.393 16.185c1.233 1.148 3.092 1.707 4.796 1.444 1.705-.262 2.96-1.302 3.238-2.683l4.987-24.718 48.846 5.959 11.81 15.25c.979 1.265 2.699 2.063 4.453 2.065 1.753.003 3.243-.79 3.857-2.052l8.292-17.07 25.075 1.775 9.852 14.033c.923 1.314 2.641 2.177 4.428 2.225 1.787.047 3.33-.73 3.978-2.002l10.136-19.923 34.846 2.662 16.392 18.76c.891 1.019 2.281 1.699 3.754 1.835 1.472.136 2.857-.287 3.741-1.143l17.66-17.104 33.156 12.373-8.436 28.131c-.499 1.665.563 3.526 2.554 4.471 1.99.946 4.372.722 5.726-.538l17.316-16.112 37.301 19.064.842 18.874c.067 1.511 1.257 2.949 3.02 3.653 1.763.703 3.757.535 5.062-.428l19.463-14.35 41.837 16.405-.83 20.45c-.055 1.353.817 2.711 2.278 3.548 1.46.838 3.281 1.024 4.758.486l28.785-10.486 49.412 24.732-7.939 16.342c-.74 1.523-.042 3.381 1.7 4.525 1.742 1.143 4.092 1.286 5.723.348l20.69-11.897 27.056 17.983-9.191 20.455c-.581 1.292-.153 2.826 1.105 3.958 1.257 1.132 3.125 1.664 4.82 1.375l14.617-2.498 21.69 14.587-12.635 14.548c-1.109 1.277-.961 3.088.366 4.468 1.327 1.381 3.523 2.008 5.418 1.549l20.618-5 18.958 27.632-16.179 17.481c-1.456 1.573-.897 3.955 1.249 5.32 2.145 1.365 5.065 1.196 6.521-.377l17.843-19.278c1.016-1.098 1.081-2.646.167-3.979l-22.538-32.85c-1.192-1.737-3.709-2.642-5.882-2.116l-10.467 2.539 6.861-7.899c1.341-1.545.814-3.811-1.201-5.167l-27.233-18.315c-1.226-.824-2.804-1.167-4.239-.922l-7.89 1.348 7.241-16.114c.676-1.503-.02-3.304-1.711-4.427l-32.868-21.847c-1.743-1.158-4.108-1.309-5.749-.366l-9.891 5.688 3.228-6.646c.828-1.704-.15-3.792-2.275-4.855l-55.405-27.732c-1.415-.708-3.096-.832-4.471-.332l-23.682 8.627.667-16.434c.065-1.601-1.164-3.179-3.054-3.92l-47.893-18.779c-1.756-.689-3.733-.515-5.029.441l-13.913 10.258-.543-12.17c-.06-1.352-1.022-2.66-2.52-3.426l-43.198-22.078c-2.011-1.028-4.485-.833-5.878.463l-6.6 6.142 4.55-15.173c.543-1.812-.762-3.827-3.027-4.672l-40.38-15.07c-1.931-.72-4.076-.403-5.303.786l-15.989 15.486-14.08-16.113c-.911-1.043-2.342-1.729-3.847-1.844l-40.38-3.085c-1.899-.145-3.584.639-4.27 1.987l-7.803 15.337-6.33-9.015c-.875-1.246-2.469-2.092-4.168-2.212l-30.99-2.194c-1.911-.135-3.597.671-4.261 2.038l-6.191 12.745-8.037-10.378c-.84-1.085-2.235-1.837-3.748-2.022l-55.405-6.759c-2.37-.289-4.428.871-4.797 2.704l-4.154 20.59-13.167-12.253c-1.391-1.294-3.557-1.825-5.382-1.318l-28.172 7.811c-1.86.515-2.94 1.987-2.669 3.635l4.766 28.963-21.729-5.529c-2.17-.553-4.349.15-5.229 1.687l-12.208 21.311c-.625 1.09-.487 2.425.366 3.558l9.341 12.402-1.579 7.407c-.426 1.999 1.302 4.093 3.86 4.676 2.558.583 4.977-.566 5.403-2.565Zm-38.035-32.027 2.289-11.467c.235-1.175-.065-2.416-.84-3.48l-10.927-14.993 11.824-22.302 29.805 6.987c1.813.425 3.688.095 5.037-.886 1.348-.981 2.003-2.491 1.759-4.056l-6.313-40.45 26.81-8.83 21.201 20.167c1.503 1.43 3.769 2.073 5.847 1.66 2.078-.413 3.607-1.811 3.947-3.607l6.079-32.16 59.541 5.593 14.395 19.2c1.194 1.592 3.291 2.549 5.429 2.477 2.137-.072 3.953-1.162 4.701-2.819l10.107-22.419 30.566 1.212 12.01 17.711c1.125 1.659 3.219 2.7 5.397 2.684 2.178-.015 4.059-1.086 4.849-2.758l12.355-26.185 42.477 1.937 19.981 23.537c1.086 1.28 2.78 2.098 4.575 2.21 1.795.113 3.484-.494 4.561-1.638l21.527-22.867 40.415 14.561-10.282 36.718c-.609 2.174.686 4.533 3.112 5.669 2.426 1.136 5.33.745 6.98-.942l21.107-21.571 45.469 23.03 1.026 24.356c.082 1.949 1.532 3.757 3.681 4.59 2.149.833 4.58.529 6.171-.771l23.725-19.386 50.998 19.396-1.012 26.465c-.067 1.751.995 3.469 2.776 4.488 1.781 1.02 4 1.181 5.8.423l35.088-14.794 60.231 29.831-9.677 21.462c-.902 2.001-.051 4.371 2.073 5.774 2.123 1.403 4.987 1.487 6.976.204l25.22-16.268 32.98 22.074-11.204 26.831c-.708 1.695-.186 3.66 1.347 5.068 1.532 1.408 3.81 2.016 5.876 1.569l17.817-3.86 26.44 17.917-15.402 19.346c-1.352 1.698-1.171 4.033.446 5.759 1.617 1.727 4.295 2.443 6.604 1.768l25.133-7.351 23.108 34.892-19.721 23.29c-1.775 2.096-1.093 5.15 1.522 6.822 2.616 1.671 6.175 1.327 7.95-.769l21.749-25.684c1.239-1.463 1.318-3.466.204-5.149l-27.473-41.482c-1.453-2.194-4.521-3.255-7.17-2.481l-12.759 3.732 8.363-10.504c1.635-2.054.993-4.96-1.464-6.625l-33.196-22.495c-1.494-1.012-3.417-1.388-5.167-1.009l-9.617 2.083 8.827-21.138c.823-1.971-.025-4.268-2.086-5.648l-40.064-26.815c-2.126-1.423-5.009-1.515-7.008-.225l-12.058 7.777 3.936-8.729c1.009-2.238-.184-4.893-2.773-6.176l-67.538-33.449c-1.724-.854-3.774-.943-5.45-.236l-28.867 12.17.813-21.267c.08-2.072-1.419-4.059-3.722-4.935l-58.38-22.203c-2.14-.814-4.55-.505-6.13.786l-16.959 13.858-.662-15.704c-.073-1.745-1.247-3.394-3.072-4.319l-52.656-26.669c-2.452-1.242-5.468-.884-7.166.851l-8.045 8.223 5.546-19.806c.663-2.365-.928-4.912-3.689-5.907l-49.222-17.734c-2.354-.848-4.969-.344-6.464 1.244l-19.49 20.704-17.163-20.217c-1.11-1.308-2.855-2.133-4.69-2.216l-49.222-2.246c-2.314-.105-4.368.981-5.204 2.752l-9.512 20.159-7.715-11.378c-1.067-1.573-3.01-2.598-5.082-2.68l-37.775-1.498c-2.33-.092-4.384 1.022-5.194 2.818l-7.546 16.738-9.797-13.066c-1.023-1.365-2.724-2.278-4.568-2.451l-67.538-6.345c-2.888-.271-5.396 1.316-5.847 3.701l-5.064 26.789-16.049-15.266c-1.696-1.613-4.335-2.206-6.561-1.473l-34.341 11.31c-2.266.747-3.583 2.696-3.253 4.814l5.81 37.225-26.487-6.209c-2.645-.62-5.301.382-6.374 2.406l-14.881 28.069c-.761 1.435-.593 3.155.447 4.582l11.386 15.625-1.924 9.64c-.52 2.603 1.586 5.234 4.704 5.877 3.118.643 6.067-.945 6.587-3.548Zm410.143-206.596-31.326-10.857c-2.869-.994-6.056-.231-7.879 1.887l-23.758 27.597-20.92-25.387c-1.354-1.643-3.48-2.633-5.717-2.662l-59.999-.779c-2.822-.036-5.326 1.456-6.344 3.781L1479.5 905.09l-9.405-14.372c-1.299-1.986-3.669-3.227-6.194-3.244l-46.046-.306c-2.84-.019-5.344 1.51-6.331 3.866l-9.199 21.957-11.942-16.464c-1.247-1.72-3.321-2.825-5.568-2.97l-82.326-5.286c-3.52-.227-6.578 1.933-7.127 5.034l-6.173 34.84-19.563-19.037c-2.067-2.012-5.285-2.663-7.997-1.62l-41.861 16.098c-2.762 1.063-4.368 3.638-3.965 6.361l7.082 47.858-32.286-6.881c-3.225-.688-6.462.722-7.77 3.384l-18.14 36.916c-.927 1.889-.723 4.104.545 5.904l13.879 19.701-2.346 12.542c-.633 3.386 1.934 6.696 5.735 7.392 3.801.697 7.395-1.484 8.029-4.87l2.791-14.917c.285-1.529-.08-3.12-1.025-4.462l-13.319-18.905 14.412-29.332 36.332 7.743c2.209.471 4.496-.036 6.139-1.361 1.644-1.326 2.443-3.307 2.145-5.319l-7.695-52.003 32.68-12.568 25.843 25.149c1.832 1.782 4.595 2.516 7.127 1.892 2.533-.623 4.398-2.496 4.811-4.832l7.41-41.825 72.579 4.661 17.547 24.192c1.455 2.006 4.012 3.152 6.617 2.967 2.605-.186 4.819-1.672 5.73-3.847l12.321-29.408 37.259.248 14.639 22.37c1.371 2.095 3.924 3.351 6.579 3.237 2.655-.115 4.948-1.579 5.91-3.774l15.061-34.374 51.778.671 24.356 29.557c1.324 1.607 3.388 2.591 5.576 2.659 2.189.067 4.247-.789 5.56-2.314l26.24-30.481 28.155 9.757-.577 2.389c-.843 3.498.951 7.091 4.314 8.636 3.364 1.545 7.389.626 9.676-2.208l2.628-3.257 5.069 1.757-12.534 47.897c-.742 2.836.836 5.828 3.794 7.192 2.957 1.364 6.497.732 8.509-1.519l25.728-28.787 55.425 27.801 1.251 31.432c.1 2.515 1.867 4.789 4.487 5.773 2.619.984 5.582.487 7.522-1.262l28.919-26.077 62.164 22.867-1.233 34.246c-.082 2.265 1.213 4.439 3.384 5.68 2.171 1.241 4.876 1.354 7.07.296l42.771-20.632 73.419 35.953-11.796 28.155c-1.099 2.625-.062 5.651 2.527 7.373 2.588 1.721 6.079 1.706 8.503-.038l30.742-22.112 40.202 27.105-13.657 35.159c-.863 2.221-.227 4.737 1.641 6.491 1.868 1.754 4.645 2.441 7.163 1.774l21.719-5.756 32.229 22.014-18.775 25.666c-1.648 2.253-1.428 5.263.544 7.424 1.972 2.162 5.235 2.972 8.051 2l30.635-10.585 28.168 44.097-24.039 30.949c-2.164 2.786-1.333 6.704 1.855 8.751 3.189 2.048 7.527 1.45 9.691-1.336l26.511-34.131c1.511-1.944 1.607-4.537.248-6.664l-33.488-52.424c-1.771-2.772-5.511-4.012-8.739-2.897l-15.553 5.374 10.194-13.937c1.993-2.724 1.21-6.452-1.784-8.498l-40.465-27.64a7.76 7.76 0 0 0-6.298-1.081l-11.723 3.107 10.759-27.698c1.004-2.584-.031-5.516-2.542-7.21l-48.837-32.927a7.618 7.618 0 0 0-2.357-1.057 8.016 8.016 0 0 0 2.979-1.513l34.959-28.308 45.716 31.478-15.531 43.553c-.981 2.752-.257 5.802 1.867 7.869s5.281 2.793 8.145 1.873l24.698-7.936 36.649 25.584-21.35 32.158c-1.874 2.823-1.623 6.493.619 9.054 2.242 2.562 5.953 3.418 9.155 2.112l34.837-14.208 32.032 52.751-27.337 38.836c-2.46 3.495-1.515 8.251 2.11 10.623 3.626 2.371 8.56 1.461 11.02-2.034l30.148-42.829a7.417 7.417 0 0 0 .282-8.158l-38.082-62.714c-2.013-3.316-6.267-4.677-9.938-3.18l-17.686 7.213 11.593-17.461c2.266-3.414 1.376-7.94-2.03-10.317l-46.015-32.122a8.18 8.18 0 0 0-7.162-1.061l-13.33 4.284 12.235-34.312c1.141-3.2-.035-6.743-2.892-8.709l-55.535-38.24c-2.946-2.029-6.942-1.878-9.714.367l-16.714 13.534 5.455-14.199c1.399-3.641-.254-7.714-3.843-9.474l-93.617-45.888a8.198 8.198 0 0 0-7.555.189l-40.014 22.21 1.127-33.69c.11-3.283-1.967-6.267-5.16-7.414l-80.923-29.062c-2.967-1.066-6.307-.329-8.498 1.875l-23.508 23.647-.917-24.747c-.102-2.749-1.728-5.235-4.258-6.507l-72.99-36.711c-3.399-1.709-7.579-.831-9.932 2.085l-11.152 13.823 7.688-31.868c.918-3.806-1.288-7.667-5.115-8.954l-68.229-22.944c-3.263-1.097-6.887-.032-8.96 2.632l-27.016 34.725-23.79-30.175c-1.539-1.952-3.957-3.075-6.501-3.018l-68.229 1.53c-3.208.072-6.056 2-7.214 4.885l-13.185 32.834-10.695-17.183c-1.478-2.374-4.172-3.793-7.043-3.709l-52.362 1.529c-3.23.095-6.078 2.068-7.2 4.989l-10.461 27.227-13.579-19.636c-1.419-2.051-3.777-3.318-6.333-3.401l-93.617-3.059c-4.004-.131-7.48 2.636-8.105 6.45l-7.019 42.854-22.247-22.468c-2.351-2.373-6.01-3.037-9.094-1.65l-47.602 21.415c-3.141 1.413-4.967 4.629-4.509 7.941l8.053 58.223-36.715-7.079c-3.667-.707-7.348 1.151-8.835 4.459l-20.628 45.888a7.412 7.412 0 0 0 .619 7.196l15.784 23.514-2.668 15.432c-.721 4.166 2.199 8.107 6.521 8.801 4.322.695 8.41-2.12 9.13-6.286l3.174-18.356a7.428 7.428 0 0 0-1.165-5.412l-15.146-22.565 16.389-36.46 41.315 7.966c2.512.484 5.112-.231 6.981-1.919 1.87-1.689 2.778-4.144 2.439-6.591l-8.75-63.266 37.162-16.718 29.388 29.68c2.084 2.104 5.225 2.886 8.105 2.019 2.88-.867 5-3.234 5.471-6.107l8.426-51.445 82.533 2.697 19.954 28.853c1.655 2.393 4.562 3.689 7.525 3.354 2.963-.335 5.48-2.243 6.516-4.94l14.011-36.467 42.369-1.237 16.648 26.746c1.559 2.505 4.461 3.935 7.481 3.685 3.019-.249 5.626-2.135 6.72-4.859l17.127-42.651 58.879-1.32 27.697 35.131c1.506 1.909 3.854 3.028 6.342 3.02 2.488-.008 4.829-1.14 6.321-3.059l29.84-38.354 56.023 18.839-10.728 44.466Zm73.133 328.708 51.954-7.285 9.617 24.96-26.17 2.365c-2.68.242-4.649 2.533-4.398 5.117.252 2.584 2.628 4.482 5.308 4.24l32.497-2.937c1.509-.136 2.866-.942 3.672-2.179a4.55 4.55 0 0 0 .442-4.136l-13.202-34.263c-.8-2.077-2.996-3.332-5.271-3.014l-55.852 7.832c-2.664.374-4.51 2.758-4.122 5.326.387 2.568 2.861 4.348 5.525 3.974Zm-96.599-26.698 9.705-28.919 30.481 8.735 10.419 33.782c.767 2.487 3.481 3.904 6.061 3.165 2.58-.74 4.05-3.356 3.283-5.844l-11.17-36.22c-.47-1.522-1.705-2.713-3.284-3.166l-37.573-10.768c-2.537-.727-5.212.63-6.027 3.058l-11.171 33.284c-.828 2.469.576 5.118 3.138 5.917 2.561.799 5.309-.555 6.138-3.024Zm-96.631-43.648 13.433-30.214 41.069 14.021-.892 24.948c-.093 2.594 2.013 4.769 4.703 4.858 2.691.09 4.947-1.94 5.04-4.534l1.015-28.389c.074-2.049-1.239-3.907-3.244-4.592l-48.744-16.642c-2.423-.827-5.095.301-6.108 2.579l-15.232 34.263c-1.061 2.385.085 5.148 2.56 6.17 2.474 1.022 5.34-.083 6.4-2.468Zm-123.627-9.78-6.714-27.509h51.192l9.086 28.029c.803 2.477 3.537 3.857 6.107 3.083 2.569-.774 4.001-3.409 3.198-5.886l-10.155-31.327c-.636-1.961-2.52-3.297-4.652-3.297h-60.931a4.943 4.943 0 0 0-3.821 1.782c-.924 1.125-1.265 2.596-.924 3.993l8.124 33.284c.617 2.527 3.241 4.093 5.862 3.498 2.62-.594 4.245-3.124 3.628-5.65Zm265.17-241.149 7.228 2.505c3.365 1.166 5.305 4.39 4.497 7.475l-6.76 25.835 9.807-10.973c2.069-2.316 5.745-2.909 8.734-1.41l64.186 32.196c2.225 1.116 3.655 3.197 3.745 5.449l.806 20.266 20.673-18.64c1.926-1.738 4.863-2.241 7.472-1.281l71.163 26.176c2.808 1.033 4.634 3.535 4.537 6.217l-.991 27.52 35.188-16.974c2.043-.985 4.542-.959 6.643.07l82.325 40.315c3.157 1.546 4.611 4.926 3.381 7.862l-4.798 11.451 14.698-10.572a6.93 6.93 0 0 1 2.118-1.022 8.06 8.06 0 0 1-2.623-1.162c-2.943-1.997-4.123-5.655-2.872-8.91l13.413-34.912-83.489-40.924-48.638 26.996a8.19 8.19 0 0 1-8.04-.07c-2.468-1.427-3.941-4.031-3.848-6.805l1.403-41.923-70.691-25.388-32.886 33.08c-2.205 2.219-5.575 2.949-8.554 1.854-2.979-1.094-4.988-3.802-5.102-6.873l-1.422-38.38-63.027-31.7-18.276 22.652Z" class="colorecb75c svgShape"></path><path fill="#940000" d="M1024.56 875.762c-7.443 8.548-12.609 17.863-15.306 27.934-28.412 106.124 228.157 256.336 572.589 335.232 344.433 78.895 647.135 56.79 675.547-49.334.074-.276.147-.551.216-.828 9.465 19.287 12.268 37.87 7.604 55.291-29.575 110.469-348.396 132.031-711.425 48.875-363.028-83.155-633.672-239.739-604.096-350.209 7.536-28.147 33.845-50.563 74.871-66.961Z" class="color941700 svgShape"></path><path d="M1302.09 1673.58c-11.465 106.249-28.707 272.195-26.332 287.959 12.829 85.17 471.885 87.401 506.624 33.938 9.603-14.779 38.055-382.844 38.055-382.844l81.709 4.459s-18.509 372.196.115 383.142c25.656 15.08 387.395 11.437 419.549-15.445 8.114-6.783 39.661-337.668 39.987-342.22l.048-.632-.002-.001v-.004l-.001-.002.002-.002.016.001a.071.071 0 0 0 .093-.003c-1.864-1.518-67.11-53.405-67.11-53.405l-.243-.01c-55.689-44.003-209.765-162.548-209.765-162.548l-29.011 59.75s80.308 64.963 120.855 97.857l-838.809-42.559c-10.595-.537-19.908 6.958-21.647 17.423l-4.434 26.676c-.069-.054-341.579-269.979-419.806-312.176-18.055-9.74-39.532 19.94-41.439 51.862-8.06 134.851 33.262 112.915 43.865 18.612.175-1.551 1.968 1.455 2.884 2.174 75.126 58.915 394.408 319.518 404.797 327.998Z" fill="#dca3f3" class="color000 svgShape"></path><path fill="#4c4c4c" d="m1761.23 1609.2-384.4-20.685s-.202 5.596-.348 9.044c-2.527 59.742-30.723 324.776-16.845 333.829 21.453 13.993 337.346 46.353 367.976 21.301l33.617-343.489Zm546.829 29.838-349.096-18.993s-.184 4.792-.316 8.011c-2.295 55.786-12.156 312.608.447 321.061 19.483 13.067 294.251 6.545 322.068-16.849l26.897-293.23Z" class="color4c4c4c svgShape"></path><path fill="#f00606" d="M495.003 1028.59c20.211-20.76 68.386-17.827 130.115 20.264 70.463 43.48 195.444-41.757 279.849-175.453 0 0-94.941 170.274-235.42 113.995-72.368-28.992-144.308-78.083-174.544 41.194Z" class="colorf02b06 svgShape"></path><path fill="#594a4a" d="M495.003 1028.59c20.211-20.76 66.832-15.186 130.115 20.264 51.664 28.942 120.125-12.49 120.125-12.49s-55.566 41.15-115.669 1.264c-102.831-68.242-114.134-38.235-134.571-9.038Z" class="color59524a svgShape"></path><path fill="#594a4a" d="M513.611 981.294c-4.269 6.469 19.392-28.03 63.238-5.147 44.724 23.34 156.963 88.892 242.948 3.121 24.363-24.302 59.619-65.397 85.17-105.869 0 0-93.889 167.572-235.42 113.995-50.528-19.128-116.459-65.918-155.936-6.1Z" class="color59524a svgShape"></path><path fill="#ce5252" d="M529.253 965.691s-76.408 57.612 7.509 175.234c68.072 95.413 81.68 229.58-57.322 178.194 0 0 36.246-32.159-12.051-104.808-24.876-37.419-74.139-104.763-67.925-137.847 3.191-16.986 78.759-91.573 129.789-110.773Z" class="colorf26c07 svgShape"></path><path fill="#6f6f6f" d="M529.521 965.691s-76.676 57.612 7.241 175.234c56.457 79.133 73.642 184.654-1.238 189.553-7.653.501 84.959 2.6-27-172.279-62.246-97.227-47.219-150.228-26.662-165.193 16.294-11.862 33.108-21.841 47.659-27.315Z" class="color7f705f svgShape"></path><path fill="#6f6f6f" d="M421.564 1046.19c13.954-14.905-35.07 28.516 68.186 162.299 48.756 63.17 14.167 119.552 14.167 119.552-8.525-2.148-16.623-5.262-24.477-8.92 0 0 36.246-32.159-12.051-104.808-24.876-37.419-74.139-104.763-67.925-137.847 1.021-5.432 9.444-16.756 22.1-30.276Z" class="color7f705f svgShape"></path><path fill="#d473f6" d="M387.492 1235.71s-73.014 56.749-67.303 65.871c5.711 9.121 41.264 74.57 139.315 87.526 0 0 43.314-2.643 107.354-73.725 0 0-32.35 33.439-102.242-5.054-57.461-31.646-75.227-58.878-77.124-74.618Z" class="color0153c0 svgShape"></path><path fill="#8c8c8c" d="M495.32 1375.61c-65.251-15.196-119.906-45.717-164.335-91.028 0 0-12.424 14.395-10.796 16.996 5.711 9.121 41.264 74.57 139.315 87.526 13.657-1.942 25.288-6.897 35.816-13.494ZM387.492 1235.71s-13.485 9.278-26.6 21.625c-20.295 19.107 143.932 121.842 175.801 88.169 8.424-8.901 19.5-18.285 30.165-30.122 0 0-32.35 33.439-102.242-5.054-57.461-31.646-75.227-58.878-77.124-74.618Z" class="colora08e78 svgShape"></path><ellipse cx="759.342" cy="846.116" fill="#5b5b5b" rx="145.626" ry="136.154" class="color5b5b5b svgShape"></ellipse><ellipse cx="757.938" cy="848.932" fill="#292626" rx="80.908" ry="77.641" class="color292826 svgShape"></ellipse><ellipse cx="761.236" cy="841.949" rx="21.001" ry="19.635" fill="#dca3f3" class="color000 svgShape"></ellipse><path fill="#494949" d="M749.112 890.724c16.384 0 29.686 12.437 29.686 27.755s-13.302 27.755-29.686 27.755-29.685-12.437-29.685-27.755 13.301-27.755 29.685-27.755Zm84.108-28.036c16.384 0 29.686 12.437 29.686 27.755s-13.302 27.755-29.686 27.755-29.686-12.437-29.686-27.755 13.302-27.755 29.686-27.755Zm-152.303-25.762c16.384 0 29.685 12.436 29.685 27.754 0 15.319-13.301 27.755-29.685 27.755s-29.686-12.436-29.686-27.755c0-15.318 13.302-27.754 29.686-27.754Zm156.849-54.557c16.384 0 29.686 12.437 29.686 27.755s-13.302 27.755-29.686 27.755-29.685-12.437-29.685-27.755 13.301-27.755 29.685-27.755Zm-150.787-15.154c16.383 0 29.685 12.436 29.685 27.754 0 15.319-13.302 27.755-29.685 27.755-16.384 0-29.686-12.436-29.686-27.755 0-15.318 13.302-27.754 29.686-27.754Zm75.015-21.217c16.384 0 29.685 12.437 29.685 27.755s-13.301 27.755-29.685 27.755-29.686-12.437-29.686-27.755 13.302-27.755 29.686-27.755Z" class="color494949 svgShape"></path></svg>
